#!OML:ASF E:\acrobat2\Project_11_07_03\Capture day 1\Session 1\Acrobat.ASF
:FULLY-SPECIFIED
:DEGREES
350
root 11.0442 17.9443 -29.8474 4.23113 -69.3288 -1.33633
lowerback 0.588647 0.6038 3.83813
upperback -1.88167 0.785579 -3.34645
thorax -2.1726 0.282667 -5.64521
lowerneck -3.45136 12.5239 4.79311
upperneck 6.71464 17.2723 -10.3239
head 3.89163 8.26436 -2.94365
rclavicle -6.72141e-015 0
rhumerus -11.9307 -49.4938 4.75193
rradius 19.2881
rwrist 12.9091
rhand -15.4514 -51.5822
rfingers 7.12502
rthumb 10.7294 -81.2882
lclavicle -6.72141e-015 0
lhumerus 13.3805 8.54454 0.466033
lradius 22.3748
lwrist 11.9685
lhand -19.5926 -7.36123
lfingers 7.12502
lthumb 6.73309 22.5117
rfemur 11.5271 5.30451 13.4199
rtibia 1.97186
rfoot -38.1962 -33.8782
rtoes 5.43889
lfemur -16.4568 12.9448 8.54204
ltibia 21.8324
lfoot -14.052 25.5376
ltoes 51.5494
351
root 11.0324 17.9203 -29.7773 5.75888 -68.7661 -2.88972
lowerback 0.66016 0.561925 3.77324
upperback -1.83341 0.728432 -3.42603
thorax -2.16997 0.255299 -5.69107
lowerneck -3.7718 12.7459 5.24348
upperneck 6.88548 17.5916 -10.6989
head 4.09413 8.39829 -3.05744
rclavicle -6.6127e-014 3.18055e-015
rhumerus -11.916 -45.9484 5.13118
rradius 20.0269
rwrist 8.92257
rhand -15.4884 -51.8615
rfingers 7.12502
rthumb 10.6937 -81.5694
lclavicle -6.6127e-014 3.18055e-015
lhumerus 13.2428 8.08551 0.0879122
lradius 22.5048
lwrist 12.5853
lhand -19.7407 -6.96794
lfingers 7.12502
lthumb 6.59013 22.9095
rfemur 11.3268 4.44014 13.5948
rtibia 2.60742
rfoot -38.2671 -33.2847
rtoes 5.80268
lfemur -17.2563 13.5044 8.61413
ltibia 23.219
lfoot -13.41 24.6389
ltoes 48.9177
352
root 11.0196 17.8962 -29.7054 7.08955 -68.2324 -4.18283
lowerback 0.687058 0.563313 3.59673
upperback -1.8054 0.725627 -3.49327
thorax -2.15737 0.256901 -5.66071
lowerneck -3.90372 12.8342 4.76618
upperneck 6.86292 17.7055 -10.4349
head 4.05198 8.44848 -2.90035
rclavicle -1.24501e-014 -8.74653e-015
rhumerus -10.925 -47.6871 4.87255
rradius 19.9595
rwrist 10.3253
rhand -15.8061 -51.7372
rfingers 7.12502
rthumb 10.3872 -81.4606
lclavicle -1.24501e-014 -8.74653e-015
lhumerus 13.4652 9.31915 0.589816
lradius 22.2675
lwrist 11.2538
lhand -19.8336 -7.13283
lfingers 7.12502
lthumb 6.50047 22.7474
rfemur 11.0538 3.45814 13.669
rtibia 3.29477
rfoot -37.9291 -32.7739
rtoes 4.6438
lfemur -18.0923 14.1913 8.56238
ltibia 24.5767
lfoot -16.7891 22.4162
ltoes 51.5487
353
root 11.0077 17.8705 -29.6328 8.30062 -67.7186 -5.38011
lowerback 0.792686 0.6792 3.41465
upperback -1.81049 0.87414 -3.64668
thorax -2.20375 0.330857 -5.72299
lowerneck -3.695 12.7213 4.73503
upperneck 6.60393 17.5238 -10.3513
head 3.91481 8.37881 -2.91016
rclavicle 1.33155e-014 -3.65764e-014
rhumerus -10.6562 -47.9164 5.18318
rradius 20.1131
rwrist 10.4985
rhand -16.0723 -51.9021
rfingers 7.12502
rthumb 10.1304 -81.6382
lclavicle 1.33155e-014 -3.65764e-014
lhumerus 14.0749 10.3388 1.16685
lradius 22.0156
lwrist 10.0051
lhand -19.9557 -7.30914
lfingers 7.12502
lthumb 6.38261 22.5747
rfemur 10.7598 2.42184 13.7383
rtibia 4.0588
rfoot -37.4026 -32.3603
rtoes 2.94015
lfemur -18.9373 14.9407 8.45081
ltibia 25.975
lfoot -18.475 20.4317
ltoes 51.6885
354
root 11.001 17.841 -29.5611 9.98531 -67.1137 -7.16558
lowerback 1.05239 0.696613 3.44998
upperback -1.80289 0.901123 -3.73078
thorax -2.33742 0.339357 -5.83712
lowerneck -3.40432 12.6601 4.94108
upperneck 6.09614 17.3971 -10.4663
head 3.73199 8.34506 -3.01684
rclavicle -2.90598e-014 1.11319e-014
rhumerus -10.0259 -47.8056 5.15953
rradius 20.2082
rwrist 10.3537
rhand -16.3508 -52.0269
rfingers 7.12502
rthumb 9.86168 -81.776
lclavicle -2.90598e-014 1.11319e-014
lhumerus 14.3793 10.6023 1.22455
lradius 21.9152
lwrist 9.60244
lhand -20.1779 -7.15163
lfingers 7.12502
lthumb 6.16808 22.7386
rfemur 10.479 1.49796 14.1499
rtibia 4.89883
rfoot -37.3263 -31.7738
rtoes 2.75941
lfemur -19.8297 15.8035 8.64636
ltibia 27.4609
lfoot -20.0813 18.3092
ltoes 52.0785
355
root 10.9992 17.8103 -29.4919 11.9582 -66.4184 -9.24739
lowerback 1.36287 0.689337 3.6351
upperback -1.77837 0.902361 -3.77275
thorax -2.48427 0.332952 -5.99318
lowerneck -3.73567 12.7938 5.01891
upperneck 6.27111 17.5765 -10.3989
head 3.85335 8.42016 -2.96519
rclavicle 1.22998e-014 -9.54166e-015
rhumerus -9.31653 -47.5179 5.05602
rradius 20.28
rwrist 10.0065
rhand -16.6178 -52.003
rfingers 7.12502
rthumb 9.60412 -81.7641
lclavicle 1.22998e-014 -9.54166e-015
lhumerus 14.3528 9.79272 0.686452
lradius 22.0823
lwrist 10.596
lhand -20.3855 -6.85922
lfingers 7.12502
lthumb 5.96766 23.0367
rfemur 10.1556 0.751959 14.8452
rtibia 5.74533
rfoot -37.7571 -31.0158
rtoes 4.24174
lfemur -20.802 16.7068 9.03901
ltibia 28.9405
lfoot -19.562 17.8298
ltoes 49.3752
356
root 11.0092 17.7735 -29.4486 14.0246 -65.3474 -10.9894
lowerback 1.48915 0.640744 3.56339
upperback -1.90364 0.835324 -3.78572
thorax -2.69478 0.291533 -5.96792
lowerneck -3.82945 12.757 5.22356
upperneck 6.3504 17.5361 -10.6075
head 3.9266 8.38948 -3.04632
rclavicle 2.77056e-014 6.36111e-015
rhumerus -9.01133 -46.6832 5.27393
rradius 20.469
rwrist 9.26058
rhand -16.846 -52.0024
rfingers 7.12502
rthumb 9.38396 -81.7735
lclavicle 2.77056e-014 6.36111e-015
lhumerus 14.2608 7.70252 -0.569562
lradius 22.5511
lwrist 13.3347
lhand -20.4875 -6.55342
lfingers 7.12502
lthumb 5.86912 23.3453
rfemur 9.41297 -0.179219 15.7766
rtibia 6.56487
rfoot -38.0799 -30.6586
rtoes 5.13017
lfemur -22.6305 17.7289 9.27304
ltibia 30.6691
lfoot -18.4398 17.7966
ltoes 45.2235
357
root 11.0073 17.7471 -29.3793 15.5474 -64.5016 -12.5995
lowerback 1.79388 0.63672 3.61844
upperback -1.86175 0.837246 -3.84052
thorax -2.822 0.288251 -6.06266
lowerneck -3.51176 12.5962 5.39556
upperneck 5.7804 17.268 -10.6651
head 3.70068 8.29094 -3.1477
rclavicle 2.43014e-014 -2.70347e-014
rhumerus -7.7735 -50.5389 4.98832
rradius 19.6539
rwrist 13.175
rhand -16.8879 -51.0686
rfingers 7.12502
rthumb 9.34346 -80.8416
lclavicle 2.43014e-014 -2.70347e-014
lhumerus 14.6845 9.14508 0.0663256
lradius 22.289
lwrist 11.8017
lhand -20.2871 -6.73218
lfingers 7.12502
lthumb 6.06264 23.1611
rfemur 9.09792 -1.35117 16.2713
rtibia 7.40487
rfoot -37.4528 -30.4403
rtoes 3.41027
lfemur -23.6575 18.2027 9.56111
ltibia 31.9303
lfoot -20.1743 16.1062
ltoes 47.4917
358
root 10.9996 17.7213 -29.2944 16.6139 -63.8006 -13.965
lowerback 2.21078 0.673648 3.70605
upperback -1.73136 0.896548 -3.96421
thorax -2.91182 0.315133 -6.25259
lowerneck -3.83076 12.7528 5.20323
upperneck 5.97432 17.4641 -10.2447
head 3.77167 8.38284 -2.95847
rclavicle 5.58585e-014 -1.90833e-014
rhumerus -7.72374 -47.11 5.19116
rradius 20.5461
rwrist 9.88053
rhand -16.9326 -51.4922
rfingers 7.12502
rthumb 9.3004 -81.2671
lclavicle 5.58585e-014 -1.90833e-014
lhumerus 15.0466 10.4298 0.606771
lradius 22.0629
lwrist 10.066
lhand -20.2132 -6.76552
lfingers 7.12502
lthumb 6.13395 23.1257
rfemur 9.01766 -2.54387 16.4575
rtibia 8.31517
rfoot -36.85 -30.106
rtoes 1.10349
lfemur -24.3422 18.6127 9.77326
ltibia 33.1377
lfoot -23.3627 12.727
ltoes 53.1726
359
root 10.9886 17.6916 -29.2087 17.2546 -63.2041 -14.8137
lowerback 2.56828 0.731509 3.48827
upperback -1.6458 0.967798 -4.10723
thorax -3.0161 0.351918 -6.28828
lowerneck -3.47664 12.561 5.34888
upperneck 5.40445 17.1555 -10.2501
head 3.53059 8.26535 -3.04693
rclavicle -9.93923e-016 3.97569e-014
rhumerus -7.15565 -45.461 5.27782
rradius 20.7653
rwrist 8.40398
rhand -17.0508 -51.3738
rfingers 7.12502
rthumb 9.18635 -81.1537
lclavicle -9.93923e-016 3.97569e-014
lhumerus 14.9641 10.1808 0.355755
lradius 22.2482
lwrist 10.3305
lhand -20.4086 -6.68834
lfingers 7.12502
lthumb 5.94533 23.2082
rfemur 8.93077 -3.45404 16.4467
rtibia 9.19226
rfoot -36.6283 -29.6643
rtoes -0.159194
lfemur -25.0257 19.0442 9.75865
ltibia 34.3163
lfoot -27.0882 7.70955
ltoes 57.7153
360
root 10.9789 17.6584 -29.124 18.0526 -62.5903 -15.7381
lowerback 2.84328 0.773065 3.23892
upperback -1.55402 1.01493 -4.19385
thorax -3.072 0.379666 -6.24349
lowerneck -3.44295 12.6464 5.2883
upperneck 5.16316 17.2607 -10.3895
head 3.46826 8.31874 -3.08014
rclavicle 1.02374e-014 -2.38542e-014
rhumerus -6.36781 -44.8679 5.13676
rradius 20.977
rwrist 7.78919
rhand -17.4337 -51.0558
rfingers 7.12502
rthumb 8.81686 -80.8516
lclavicle 1.02374e-014 -2.38542e-014
lhumerus 14.903 10.2958 0.283945
lradius 22.3386
lwrist 10.4756
lhand -20.4913 -6.79901
lfingers 7.12502
lthumb 5.86549 23.0998
rfemur 8.73616 -4.25724 16.5636
rtibia 10.0494
rfoot -36.21 -29.3137
rtoes -1.27555
lfemur -25.8031 19.4575 9.76454
ltibia 35.439
lfoot -21.9476 13.317
ltoes 46.0895
